<svg xmlns="http://www.w3.org/2000/svg" xmlns:xlink="http://www.w3.org/1999/xlink" viewBox="0 0 2706 600"><path fill="#004388" d="M264.2-2h2439.9v602H264.2V-2"/><defs><path id="a" d="M264.2-2h2439.9v602H264.2V-2z"/></defs><clipPath id="b"><use xlink:href="#a" overflow="visible"/></clipPath><g clip-path="url(#b)"><path fill-rule="evenodd" clip-rule="evenodd" fill="#E20613" d="M2325.6 154.3c8.5 32.3 24.2 48.2 38.2 67.3-57 74.2-242.1 29.3-257.7 144-4.7 34.3 9.4 70.7 53.9 82.5 52.4 14 100.8-11.5 117.7-26.7.3-8.8 10.3-10.2 16.1-6.8 15.2 16.6 27.4 20.1 49.5 22.2 14.1.5 4.8 16.5-13.5 16.9-32.1 28.2-78.6 61.2-144.6 68.2-116.5 15-197.9-23.8-250.2-95.6-60.8-83.4-71.1-197-40-344 22.8-107.6 96.5-146.4 135.4-165.6h766.1v756.9l-246.2-13c144-280.8 3.7-426.7-134.1-452.4-.4-3.6-1.1-7.3-1.5-11.4-7.9-73.7-78.1-88.3-87-126.7 0 .2-17.1 26.8-2.1 84.2z"/></g><path fill-rule="evenodd" clip-rule="evenodd" fill="#FFF" d="M2363.7 304.4l-10.6 7.7c-1.6 1.2-3.1.1-2.5-1.8l4.1-12.5-10.6-7.7c-1.6-1.2-1-3 1-3h13.1l4.1-12.5c.6-1.9 2.5-1.9 3.1 0l4 12.5h13.1c2 0 2.6 1.8 1 3l-10.6 7.7 4.1 12.5c.6 1.9-.9 3-2.5 1.8l-10.8-7.7z"/><g><path fill-rule="evenodd" clip-rule="evenodd" fill="#FFF" d="M2045.4 104.6l-11.7 8.6c-1.8 1.3-3.5.1-2.8-2l4.5-13.8-11.8-8.5c-1.8-1.3-1.1-3.3 1.1-3.3h14.5l4.5-13.8c.7-2.1 2.8-2.1 3.4 0l4.5 13.8h14.5c2.2 0 2.8 2 1.1 3.3l-11.8 8.5 4.5 13.8c.7 2.1-1 3.3-2.8 2l-11.7-8.6z"/></g><path fill="#004388" d="M1-1h290v600H1z"/></svg>
