<svg xmlns="http://www.w3.org/2000/svg" xmlns:xlink="http://www.w3.org/1999/xlink" viewBox="0 0 640 1172"><path fill="#004388" d="M.1 0h638.4v410H.1V0"/><defs><path id="a" d="M-1022.3-1.5H639.5v410h-1661.8v-410z"/></defs><clipPath id="b"><use xlink:href="#a" overflow="visible"/></clipPath><g clip-path="url(#b)"><path fill-rule="evenodd" clip-rule="evenodd" fill="#E20613" d="M381.7 104.9c5.8 22 16.5 32.8 26 45.8-38.8 50.5-164.9 20-175.5 98.1-3.2 23.4 6.4 48.1 36.7 56.2 35.7 9.5 68.7-7.8 80.2-18.2.2-6 7-6.9 10.9-4.6 10.4 11.3 18.6 13.7 33.7 15.1 9.6.3 3.3 11.2-9.2 11.5-21.9 19.2-53.5 41.7-98.5 46.4-79.3 10.2-134.8-16.2-170.4-65.1-41.3-56.6-48.4-134-27.1-234.1 15.5-73.3 65.8-99.7 92.2-112.8h521.8v515.5l-167.7-8.8c98.1-191.2 2.5-290.6-91.4-308.1-.3-2.4-.7-5-1-7.7-5.4-50.2-53.2-60.1-59.2-86.3 0-.1-11.7 18-1.5 57.1z"/></g><path fill-rule="evenodd" clip-rule="evenodd" fill="#FFF" d="M415.2 208.7L408 214c-1.1.8-2.1 0-1.7-1.2l2.8-8.5-7.2-5.3c-1.1-.8-.7-2 .7-2h9l2.8-8.5c.4-1.3 1.7-1.3 2.1 0l2.8 8.5h9c1.3 0 1.7 1.2.7 2l-7.3 5.3 2.8 8.5c.4 1.3-.6 2-1.7 1.2l-7.6-5.3z"/><g><path fill-rule="evenodd" clip-rule="evenodd" fill="#FFF" d="M198.4 72.6l-8 5.8c-1.2.9-2.4 0-1.9-1.4l3.1-9.4-8-5.8c-1.2-.9-.8-2.2.7-2.2h9.9l3-9.4c.5-1.4 1.9-1.4 2.3 0l3 9.4h9.9c1.5 0 1.9 1.4.7 2.2l-8 5.8 3.1 9.4c.5 1.4-.7 2.2-1.9 1.4l-7.9-5.8z"/></g><path fill="#004388" d="M0 409h640v763H0z"/></svg>
